# xmcd CD database file
#
# Track frame offsets:
#	150
#	19129
#	38136
#
# Disc length: 824 seconds
#
# Revision: 9
# Processed by: cddbd v1.5.2PL0 Copyright (c) Steve Scherf et al.
# Submitted via: CDex 1.70beta2
#
DISCID=1b033603
DTITLE=UVERworld - Fight For Liberty
DYEAR=2013
DGENRE=JPop
TTITLE0=Fight For Liberty
TTITLE1=Wizard CLUB
TTITLE2=a LOVELY TONE
EXTD=Sony - 9870790162 YEAR: 2013
EXTT0=
EXTT1=
EXTT2=
PLAYORDER=
